<svg width="120" height="120" viewBox="0 0 120 120" fill="none" xmlns="http://www.w3.org/2000/svg">
<path opacity="0.05" d="M64 2.78711L116.314 63.3516L56.9603 116.733L4.64665 56.1682L64 2.78711Z" fill="#FF3E41"/>
<path d="M54.5 57.7503V49.5003C54.5 47.7715 54.5 46.908 53.9628 46.3708C53.4257 45.8337 52.5622 45.8337 50.8333 45.8337H47.1667C45.4378 45.8337 44.5743 45.8337 44.0372 46.3708C43.5 46.908 43.5 47.7715 43.5 49.5003V66.0003C43.5 69.458 43.5 71.185 44.5743 72.2593C45.6487 73.3337 47.3757 73.3337 50.8333 73.3337H54.5M54.5 57.7503L60.5812 54.7107C62.5978 53.7023 63.6062 53.1963 64.389 53.5318C64.5562 53.6031 64.7119 53.6989 64.851 53.816C65.5 54.366 65.5 55.4935 65.5 57.7503L71.1943 54.9032C73.5722 53.7152 74.7602 53.1193 75.631 53.6565C76.5018 54.1937 76.5 55.5247 76.5 58.1848V66.0003C76.5 69.458 76.5 71.185 75.4257 72.2593C74.3513 73.3337 72.6243 73.3337 69.1667 73.3337H54.5M54.5 57.7503V73.3337M43.5 51.3337H54.5M61.8333 36.667H52.6667C50.9378 36.667 50.0743 36.667 49.5372 37.2042C49 37.7413 49 38.6048 49 40.3337M67.3333 36.667H69.1667M58.1667 42.167H69.1667" stroke="#FF3E41" stroke-width="2" stroke-linecap="round" stroke-linejoin="round"/>
<path opacity="0.3" d="M117.381 63.8306L56.246 118.814L2.36174 56.4308L63.4963 1.44778L117.381 63.8306Z" stroke="#FF3E41" stroke-width="0.3"/>
<ellipse opacity="0.3" cx="63.334" cy="2.04081" rx="2" ry="2.04081" fill="#FF3E41"/>
<ellipse opacity="0.3" cx="56.3997" cy="118.64" rx="1.33333" ry="1.36054" fill="#FF3E41"/>
<ellipse opacity="0.3" cx="2" cy="56.4627" rx="2" ry="2.04081" fill="#FF3E41"/>
<ellipse opacity="0.3" cx="118" cy="63.2635" rx="2" ry="2.04081" fill="#FF3E41"/>
</svg>
