<svg width="120" height="120" viewBox="0 0 120 120" fill="none" xmlns="http://www.w3.org/2000/svg">
<path opacity="0.05" d="M64 2.78711L116.314 63.3516L56.9603 116.733L4.64665 56.1682L64 2.78711Z" fill="#FF3E41"/>
<path d="M71.0005 51.127C70.8905 51.1087 70.7621 51.1087 70.6521 51.127C68.1221 51.0353 66.1055 48.9637 66.1055 46.397C66.1055 43.7753 68.2138 41.667 70.8355 41.667C73.4571 41.667 75.5655 43.7937 75.5655 46.397C75.5471 48.9637 73.5305 51.0353 71.0005 51.127Z" stroke="#FF3E41" stroke-width="2" stroke-linecap="round" stroke-linejoin="round"/>
<path d="M69.1116 64.474C71.6233 64.8956 74.3917 64.4556 76.335 63.154C78.92 61.4306 78.92 58.6073 76.335 56.884C74.3733 55.5823 71.5683 55.1423 69.0566 55.5823" stroke="#FF3E41" stroke-width="2" stroke-linecap="round" stroke-linejoin="round"/>
<path d="M48.9459 51.127C49.0559 51.1087 49.1842 51.1087 49.2942 51.127C51.8242 51.0353 53.8409 48.9637 53.8409 46.397C53.8409 43.7753 51.7325 41.667 49.1109 41.667C46.4892 41.667 44.3809 43.7937 44.3809 46.397C44.3992 48.9637 46.4159 51.0353 48.9459 51.127Z" stroke="#FF3E41" stroke-width="2" stroke-linecap="round" stroke-linejoin="round"/>
<path d="M50.834 64.474C48.3223 64.8956 45.554 64.4556 43.6106 63.154C41.0256 61.4306 41.0256 58.6073 43.6106 56.884C45.5723 55.5823 48.3773 55.1423 50.889 55.5823" stroke="#FF3E41" stroke-width="2" stroke-linecap="round" stroke-linejoin="round"/>
<path d="M60.0005 64.8213C59.8905 64.803 59.7621 64.803 59.6521 64.8213C57.1221 64.7297 55.1055 62.658 55.1055 60.0913C55.1055 57.4697 57.2138 55.3613 59.8355 55.3613C62.4571 55.3613 64.5655 57.488 64.5655 60.0913C64.5471 62.658 62.5305 64.748 60.0005 64.8213Z" stroke="#FF3E41" stroke-width="2" stroke-linecap="round" stroke-linejoin="round"/>
<path d="M54.6653 70.5962C52.0803 72.3195 52.0803 75.1428 54.6653 76.8662C57.5986 78.8278 62.402 78.8278 65.3353 76.8662C67.9203 75.1428 67.9203 72.3195 65.3353 70.5962C62.4203 68.6528 57.5986 68.6528 54.6653 70.5962Z" stroke="#FF3E41" stroke-width="2" stroke-linecap="round" stroke-linejoin="round"/>
<path opacity="0.3" d="M117.381 63.8306L56.246 118.814L2.36174 56.4308L63.4963 1.44778L117.381 63.8306Z" stroke="#FF3E41" stroke-width="0.3"/>
<ellipse opacity="0.3" cx="63.334" cy="2.04081" rx="2" ry="2.04081" fill="#FF3E41"/>
<ellipse opacity="0.3" cx="56.3997" cy="118.64" rx="1.33333" ry="1.36054" fill="#FF3E41"/>
<ellipse opacity="0.3" cx="2" cy="56.4627" rx="2" ry="2.04081" fill="#FF3E41"/>
<ellipse opacity="0.3" cx="118" cy="63.2635" rx="2" ry="2.04081" fill="#FF3E41"/>
</svg>
