<svg width="24" height="24" viewBox="0 0 24 24" fill="none" xmlns="http://www.w3.org/2000/svg">
<g clip-path="url(#clip0_3417_1764)">
<path d="M0 12C0 5.37258 5.37258 0 12 0C18.6274 0 24 5.37258 24 12C24 18.6274 18.6274 24 12 24C5.37258 24 0 18.6274 0 12Z" fill="#003399"/>
<path d="M12 3.81641L11.6445 5.00159L12.237 5.12011L12 3.81641Z" fill="#FFCC00"/>
<path d="M12 3.81641L12.3556 5.00159L11.763 5.12011L12 3.81641Z" fill="#FFCC00"/>
<path d="M13.1272 4.63552L11.8901 4.66361L11.9605 5.26382L13.1272 4.63552Z" fill="#FFCC00"/>
<path d="M13.1272 4.63548L12.1099 5.33988L11.814 4.81291L13.1272 4.63548Z" fill="#FFCC00"/>
<path d="M12.6964 5.96046L12.2874 4.79263L11.7383 5.04506L12.6964 5.96046Z" fill="#FFCC00"/>
<path d="M12.6964 5.96044L11.7122 5.2106L12.1219 4.7664L12.6964 5.96044Z" fill="#FFCC00"/>
<path d="M10.8728 4.63552L12.1099 4.66361L12.0395 5.26382L10.8728 4.63552Z" fill="#FFCC00"/>
<path d="M10.8728 4.63548L11.8901 5.33988L12.186 4.81291L10.8728 4.63548Z" fill="#FFCC00"/>
<path d="M11.3037 5.96046L11.7126 4.79263L12.2617 5.04506L11.3037 5.96046Z" fill="#FFCC00"/>
<path d="M11.3036 5.96044L12.2879 5.2106L11.8781 4.7664L11.3036 5.96044Z" fill="#FFCC00"/>
<path d="M12 18.0386L11.6444 19.2238L12.237 19.3423L12 18.0386Z" fill="#FFCC00"/>
<path d="M12 18.0386L12.3555 19.2238L11.763 19.3423L12 18.0386Z" fill="#FFCC00"/>
<path d="M13.1272 18.8577L11.8901 18.8858L11.9605 19.486L13.1272 18.8577Z" fill="#FFCC00"/>
<path d="M13.1272 18.8576L12.1099 19.562L11.814 19.0351L13.1272 18.8576Z" fill="#FFCC00"/>
<path d="M12.6963 20.1826L12.2874 19.0148L11.7383 19.2672L12.6963 20.1826Z" fill="#FFCC00"/>
<path d="M12.6964 20.1826L11.7121 19.4328L12.1219 18.9886L12.6964 20.1826Z" fill="#FFCC00"/>
<path d="M10.8728 18.8577L12.1099 18.8858L12.0395 19.486L10.8728 18.8577Z" fill="#FFCC00"/>
<path d="M10.8728 18.8576L11.8901 19.562L12.186 19.0351L10.8728 18.8576Z" fill="#FFCC00"/>
<path d="M11.3037 20.1826L11.7126 19.0148L12.2617 19.2672L11.3037 20.1826Z" fill="#FFCC00"/>
<path d="M11.3036 20.1826L12.2879 19.4328L11.8781 18.9886L11.3036 20.1826Z" fill="#FFCC00"/>
<path d="M4.8889 10.9277L4.53334 12.1129L5.12593 12.2314L4.8889 10.9277Z" fill="#FFCC00"/>
<path d="M4.88889 10.9277L5.24445 12.1129L4.65185 12.2314L4.88889 10.9277Z" fill="#FFCC00"/>
<path d="M6.01608 11.7468L4.77903 11.7749L4.84943 12.3751L6.01608 11.7468Z" fill="#FFCC00"/>
<path d="M6.01607 11.7468L4.99877 12.4512L4.70293 11.9242L6.01607 11.7468Z" fill="#FFCC00"/>
<path d="M5.58526 13.0718L5.17628 11.904L4.62719 12.1564L5.58526 13.0718Z" fill="#FFCC00"/>
<path d="M5.58533 13.0718L4.60105 12.3219L5.0108 11.8777L5.58533 13.0718Z" fill="#FFCC00"/>
<path d="M3.76172 11.7468L4.99878 11.7749L4.92837 12.3751L3.76172 11.7468Z" fill="#FFCC00"/>
<path d="M3.76173 11.7468L4.77903 12.4512L5.07487 11.9242L3.76173 11.7468Z" fill="#FFCC00"/>
<path d="M4.19256 13.0718L4.60154 11.904L5.15062 12.1564L4.19256 13.0718Z" fill="#FFCC00"/>
<path d="M4.19247 13.0718L5.17675 12.3219L4.767 11.8777L4.19247 13.0718Z" fill="#FFCC00"/>
<path d="M7.83518 6.96679L8.81947 6.21695L8.40971 5.77275L7.83518 6.96679Z" fill="#FFCC00"/>
<path d="M7.83504 6.9668L8.24403 5.79898L8.79311 6.05141L7.83504 6.9668Z" fill="#FFCC00"/>
<path d="M7.40454 5.64134L8.42184 6.34573L8.71768 5.81877L7.40454 5.64134Z" fill="#FFCC00"/>
<path d="M7.40452 5.64138L8.64157 5.66946L8.57116 6.26968L7.40452 5.64138Z" fill="#FFCC00"/>
<path d="M8.53169 4.82275L8.17613 6.00794L8.76872 6.12646L8.53169 4.82275Z" fill="#FFCC00"/>
<path d="M8.53168 4.82275L8.88724 6.00794L8.29464 6.12646L8.53168 4.82275Z" fill="#FFCC00"/>
<path d="M9.2282 6.96679L8.24392 6.21695L8.65367 5.77275L9.2282 6.96679Z" fill="#FFCC00"/>
<path d="M9.22833 6.9668L8.81934 5.79898L8.27026 6.05141L9.22833 6.9668Z" fill="#FFCC00"/>
<path d="M9.65885 5.64134L8.64154 6.34573L8.34571 5.81877L9.65885 5.64134Z" fill="#FFCC00"/>
<path d="M9.65887 5.64138L8.42182 5.66946L8.49222 6.26968L9.65887 5.64138Z" fill="#FFCC00"/>
<path d="M6.59199 9.60303L6.183 8.43521L5.63392 8.68764L6.59199 9.60303Z" fill="#FFCC00"/>
<path d="M6.59208 9.60302L5.60779 8.85318L6.01755 8.40898L6.59208 9.60302Z" fill="#FFCC00"/>
<path d="M5.19892 9.60302L6.18321 8.85318L5.77345 8.40898L5.19892 9.60302Z" fill="#FFCC00"/>
<path d="M5.1988 9.60303L5.60778 8.43521L6.15686 8.68764L5.1988 9.60303Z" fill="#FFCC00"/>
<path d="M4.76827 8.27806L5.78558 8.98245L6.08142 8.45549L4.76827 8.27806Z" fill="#FFCC00"/>
<path d="M4.76826 8.27809L6.00531 8.30618L5.9349 8.9064L4.76826 8.27809Z" fill="#FFCC00"/>
<path d="M7.02259 8.27806L6.00528 8.98245L5.70944 8.45549L7.02259 8.27806Z" fill="#FFCC00"/>
<path d="M7.02261 8.27809L5.78556 8.30618L5.85596 8.9064L7.02261 8.27809Z" fill="#FFCC00"/>
<path d="M5.89544 7.45947L6.25099 8.64466L5.6584 8.76318L5.89544 7.45947Z" fill="#FFCC00"/>
<path d="M5.89544 7.45947L5.53989 8.64466L6.13248 8.76318L5.89544 7.45947Z" fill="#FFCC00"/>
<path d="M7.02377 15.406L5.78672 15.4341L5.85712 16.0343L7.02377 15.406Z" fill="#FFCC00"/>
<path d="M7.02378 15.406L6.00647 16.1104L5.71063 15.5834L7.02378 15.406Z" fill="#FFCC00"/>
<path d="M6.59315 16.731L6.18416 15.5631L5.63508 15.8156L6.59315 16.731Z" fill="#FFCC00"/>
<path d="M6.59324 16.731L5.60895 15.9811L6.01871 15.5369L6.59324 16.731Z" fill="#FFCC00"/>
<path d="M5.2001 16.731L6.18438 15.9811L5.77463 15.5369L5.2001 16.731Z" fill="#FFCC00"/>
<path d="M5.19997 16.731L5.60896 15.5631L6.15804 15.8156L5.19997 16.731Z" fill="#FFCC00"/>
<path d="M5.89661 14.5869L6.25217 15.7721L5.65957 15.8906L5.89661 14.5869Z" fill="#FFCC00"/>
<path d="M5.89662 14.5869L5.54106 15.7721L6.13365 15.8906L5.89662 14.5869Z" fill="#FFCC00"/>
<path d="M4.76943 15.406L6.00648 15.4341L5.93608 16.0343L4.76943 15.406Z" fill="#FFCC00"/>
<path d="M4.76943 15.406L5.78674 16.1104L6.08258 15.5834L4.76943 15.406Z" fill="#FFCC00"/>
<path d="M9.59605 17.7918L8.359 17.8199L8.4294 18.4201L9.59605 17.7918Z" fill="#FFCC00"/>
<path d="M9.59604 17.7917L8.57874 18.4961L8.2829 17.9692L9.59604 17.7917Z" fill="#FFCC00"/>
<path d="M9.16541 19.1167L8.75643 17.9489L8.20735 18.2013L9.16541 19.1167Z" fill="#FFCC00"/>
<path d="M9.1655 19.1167L8.18122 18.3668L8.59097 17.9226L9.1655 19.1167Z" fill="#FFCC00"/>
<path d="M7.77238 19.1167L8.75666 18.3668L8.34691 17.9226L7.77238 19.1167Z" fill="#FFCC00"/>
<path d="M7.77224 19.1167L8.18122 17.9489L8.7303 18.2013L7.77224 19.1167Z" fill="#FFCC00"/>
<path d="M8.46886 16.9727L8.82442 18.1578L8.23182 18.2764L8.46886 16.9727Z" fill="#FFCC00"/>
<path d="M8.46887 16.9727L8.11331 18.1578L8.7059 18.2764L8.46887 16.9727Z" fill="#FFCC00"/>
<path d="M7.3417 17.7918L8.57875 17.8199L8.50834 18.4201L7.3417 17.7918Z" fill="#FFCC00"/>
<path d="M7.3417 17.7917L8.359 18.4961L8.65484 17.9692L7.3417 17.7917Z" fill="#FFCC00"/>
<path d="M19.1111 10.9277L19.4667 12.1129L18.8741 12.2314L19.1111 10.9277Z" fill="#FFCC00"/>
<path d="M19.1111 10.9277L18.7556 12.1129L19.3481 12.2314L19.1111 10.9277Z" fill="#FFCC00"/>
<path d="M17.9839 11.7468L19.221 11.7749L19.1506 12.3751L17.9839 11.7468Z" fill="#FFCC00"/>
<path d="M17.9839 11.7468L19.0012 12.4512L19.2971 11.9242L17.9839 11.7468Z" fill="#FFCC00"/>
<path d="M18.4147 13.0718L18.8237 11.904L19.3728 12.1564L18.4147 13.0718Z" fill="#FFCC00"/>
<path d="M18.4147 13.0718L19.399 12.3219L18.9892 11.8777L18.4147 13.0718Z" fill="#FFCC00"/>
<path d="M20.2383 11.7468L19.0012 11.7749L19.0716 12.3751L20.2383 11.7468Z" fill="#FFCC00"/>
<path d="M20.2383 11.7468L19.221 12.4512L18.9251 11.9242L20.2383 11.7468Z" fill="#FFCC00"/>
<path d="M19.8074 13.0718L19.3985 11.904L18.8494 12.1564L19.8074 13.0718Z" fill="#FFCC00"/>
<path d="M19.8075 13.0718L18.8232 12.3219L19.233 11.8777L19.8075 13.0718Z" fill="#FFCC00"/>
<path d="M16.1648 6.96679L15.1805 6.21695L15.5903 5.77275L16.1648 6.96679Z" fill="#FFCC00"/>
<path d="M16.1649 6.9668L15.756 5.79898L15.2069 6.05141L16.1649 6.9668Z" fill="#FFCC00"/>
<path d="M16.5954 5.64134L15.5781 6.34573L15.2823 5.81877L16.5954 5.64134Z" fill="#FFCC00"/>
<path d="M16.5955 5.64138L15.3584 5.66946L15.4288 6.26968L16.5955 5.64138Z" fill="#FFCC00"/>
<path d="M15.4683 4.82275L15.8239 6.00794L15.2313 6.12646L15.4683 4.82275Z" fill="#FFCC00"/>
<path d="M15.4683 4.82275L15.1128 6.00794L15.7054 6.12646L15.4683 4.82275Z" fill="#FFCC00"/>
<path d="M14.7718 6.96679L15.7561 6.21695L15.3463 5.77275L14.7718 6.96679Z" fill="#FFCC00"/>
<path d="M14.7717 6.9668L15.1806 5.79898L15.7297 6.05141L14.7717 6.9668Z" fill="#FFCC00"/>
<path d="M14.3412 5.64134L15.3585 6.34573L15.6543 5.81877L14.3412 5.64134Z" fill="#FFCC00"/>
<path d="M14.3411 5.64138L15.5782 5.66946L15.5078 6.26968L14.3411 5.64138Z" fill="#FFCC00"/>
<path d="M17.408 9.60352L17.817 8.4357L18.3661 8.68813L17.408 9.60352Z" fill="#FFCC00"/>
<path d="M17.4079 9.60351L18.3922 8.85367L17.9825 8.40946L17.4079 9.60351Z" fill="#FFCC00"/>
<path d="M18.8011 9.60351L17.8168 8.85367L18.2265 8.40946L18.8011 9.60351Z" fill="#FFCC00"/>
<path d="M18.8012 9.60352L18.3922 8.4357L17.8431 8.68813L18.8012 9.60352Z" fill="#FFCC00"/>
<path d="M19.2317 8.27855L18.2144 8.98294L17.9186 8.45598L19.2317 8.27855Z" fill="#FFCC00"/>
<path d="M19.2317 8.27858L17.9947 8.30667L18.0651 8.90689L19.2317 8.27858Z" fill="#FFCC00"/>
<path d="M16.9774 8.27806L17.9947 8.98245L18.2906 8.45549L16.9774 8.27806Z" fill="#FFCC00"/>
<path d="M16.9774 8.27809L18.2145 8.30618L18.1441 8.9064L16.9774 8.27809Z" fill="#FFCC00"/>
<path d="M18.1046 7.45947L17.749 8.64466L18.3416 8.76318L18.1046 7.45947Z" fill="#FFCC00"/>
<path d="M18.1046 7.45947L18.4601 8.64466L17.8675 8.76318L18.1046 7.45947Z" fill="#FFCC00"/>
<path d="M16.9762 15.406L18.2133 15.4341L18.1429 16.0343L16.9762 15.406Z" fill="#FFCC00"/>
<path d="M16.9762 15.406L17.9935 16.1104L18.2894 15.5834L16.9762 15.406Z" fill="#FFCC00"/>
<path d="M17.4068 16.7315L17.8158 15.5636L18.3649 15.8161L17.4068 16.7315Z" fill="#FFCC00"/>
<path d="M17.4067 16.7314L18.391 15.9816L17.9813 15.5374L17.4067 16.7314Z" fill="#FFCC00"/>
<path d="M18.8001 16.7314L17.8158 15.9816L18.2256 15.5374L18.8001 16.7314Z" fill="#FFCC00"/>
<path d="M18.8 16.7315L18.391 15.5636L17.842 15.8161L18.8 16.7315Z" fill="#FFCC00"/>
<path d="M18.1034 14.5869L17.7478 15.7721L18.3404 15.8906L18.1034 14.5869Z" fill="#FFCC00"/>
<path d="M18.1034 14.5869L18.4589 15.7721L17.8663 15.8906L18.1034 14.5869Z" fill="#FFCC00"/>
<path d="M19.2306 15.406L17.9935 15.4341L18.0639 16.0343L19.2306 15.406Z" fill="#FFCC00"/>
<path d="M19.2306 15.406L18.2133 16.1104L17.9174 15.5834L19.2306 15.406Z" fill="#FFCC00"/>
<path d="M14.404 17.7918L15.641 17.8199L15.5706 18.4201L14.404 17.7918Z" fill="#FFCC00"/>
<path d="M14.4039 17.7917L15.4212 18.4961L15.7171 17.9692L14.4039 17.7917Z" fill="#FFCC00"/>
<path d="M14.8346 19.1167L15.2436 17.9489L15.7926 18.2013L14.8346 19.1167Z" fill="#FFCC00"/>
<path d="M14.8345 19.1167L15.8188 18.3668L15.409 17.9226L14.8345 19.1167Z" fill="#FFCC00"/>
<path d="M16.2276 19.1167L15.2433 18.3668L15.6531 17.9226L16.2276 19.1167Z" fill="#FFCC00"/>
<path d="M16.2277 19.1167L15.8188 17.9489L15.2697 18.2013L16.2277 19.1167Z" fill="#FFCC00"/>
<path d="M15.5311 16.9727L15.1756 18.1578L15.7681 18.2764L15.5311 16.9727Z" fill="#FFCC00"/>
<path d="M15.5311 16.9727L15.8867 18.1578L15.2941 18.2764L15.5311 16.9727Z" fill="#FFCC00"/>
<path d="M16.6583 17.7918L15.4212 17.8199L15.4916 18.4201L16.6583 17.7918Z" fill="#FFCC00"/>
<path d="M16.6583 17.7917L15.641 18.4961L15.3451 17.9692L16.6583 17.7917Z" fill="#FFCC00"/>
</g>
<defs>
<clipPath id="clip0_3417_1764">
<rect width="24" height="24" fill="white"/>
</clipPath>
</defs>
</svg>
