<svg width="120" height="120" viewBox="0 0 120 120" fill="none" xmlns="http://www.w3.org/2000/svg">
<path opacity="0.05" d="M64 2.78711L116.314 63.3516L56.9603 116.733L4.64665 56.1682L64 2.78711Z" fill="#FF3E41"/>
<path d="M78.875 64.1562C79.1485 64.1562 79.4108 64.0476 79.6042 63.8542C79.7976 63.6608 79.9062 63.3985 79.9062 63.125C79.9062 62.8515 79.7976 62.5892 79.6042 62.3958C79.4108 62.2024 79.1485 62.0937 78.875 62.0937C75.0269 62.0909 71.199 62.6496 67.5123 63.7523C66.2305 62.9243 64.907 62.1625 63.5472 61.4698C68.4405 59.5992 73.6363 58.6454 78.875 58.6562C79.1485 58.6562 79.4108 58.5476 79.6042 58.3542C79.7976 58.1608 79.9062 57.8985 79.9062 57.625C79.9062 57.3515 79.7976 57.0892 79.6042 56.8958C79.4108 56.7024 79.1485 56.5937 78.875 56.5937C77.8438 56.5937 76.8125 56.6316 75.7812 56.7003V50.75C75.7812 50.5899 75.744 50.432 75.6724 50.2888C75.6008 50.1456 75.4968 50.0211 75.3688 49.925L64.3688 41.675C64.1902 41.5411 63.9731 41.4688 63.75 41.4688C63.5269 41.4688 63.3098 41.5411 63.1312 41.675L52.1313 49.925C52.0032 50.0211 51.8992 50.1456 51.8276 50.2888C51.756 50.432 51.7188 50.5899 51.7188 50.75V57.4136C48.8867 56.8681 46.0091 56.5936 43.125 56.5937C42.8515 56.5937 42.5892 56.7024 42.3958 56.8958C42.2024 57.0892 42.0938 57.3515 42.0938 57.625C42.0938 57.8985 42.2024 58.1608 42.3958 58.3542C42.5892 58.5476 42.8515 58.6562 43.125 58.6562C49.5687 58.6435 55.9321 60.0859 61.7405 62.8759C67.5489 65.666 72.6522 69.7316 76.6698 74.7695C76.7666 74.8903 76.8893 74.9878 77.0288 75.0548C77.1683 75.1217 77.3212 75.1564 77.4759 75.1562C77.67 75.1558 77.86 75.1006 78.0242 74.997C78.1883 74.8934 78.3198 74.7455 78.4036 74.5705C78.4875 74.3954 78.5202 74.2003 78.4981 74.0075C78.476 73.8146 78.3999 73.632 78.2786 73.4805C77.2721 72.2249 76.1999 71.0235 75.0662 69.8814C76.3304 69.7326 77.6021 69.6574 78.875 69.6562C79.1485 69.6562 79.4108 69.5476 79.6042 69.3542C79.7976 69.1608 79.9062 68.8985 79.9062 68.625C79.9062 68.3515 79.7976 68.0892 79.6042 67.8958C79.4108 67.7024 79.1485 67.5937 78.875 67.5937C76.9623 67.5937 75.0529 67.7541 73.167 68.0733C72.0636 67.0821 70.9178 66.1511 69.7295 65.2803C72.7204 64.532 75.7919 64.1545 78.875 64.1562ZM60.6562 60.1275V54.5312H66.8438V58.2197C64.8544 58.7711 62.9058 59.4603 61.012 60.2822L60.6562 60.1275ZM53.7812 51.2656L63.75 43.7891L73.7188 51.2656V56.8877C72.101 57.0711 70.4945 57.3425 68.9062 57.7006V53.5C68.9062 53.2265 68.7976 52.9642 68.6042 52.7708C68.4108 52.5774 68.1485 52.4687 67.875 52.4687H59.625C59.3515 52.4687 59.0892 52.5774 58.8958 52.7708C58.7024 52.9642 58.5938 53.2265 58.5938 53.5V59.318C57.0183 58.743 55.4115 58.2575 53.7812 57.8639V51.2656ZM62.2323 74.6956C62.1574 74.8085 62.061 74.9055 61.9486 74.9811C61.8362 75.0568 61.71 75.1095 61.5772 75.1363C61.4444 75.1631 61.3076 75.1635 61.1746 75.1374C61.0417 75.1114 60.9152 75.0593 60.8023 74.9844C55.5659 71.5004 49.4145 69.6463 43.125 69.6562C42.8515 69.6562 42.5892 69.5476 42.3958 69.3542C42.2024 69.1608 42.0938 68.8985 42.0938 68.625C42.0938 68.3515 42.2024 68.0892 42.3958 67.8958C42.5892 67.7024 42.8515 67.5937 43.125 67.5937C49.8205 67.5831 56.3691 69.5568 61.9436 73.2656C62.0565 73.3405 62.1535 73.4369 62.2291 73.5494C62.3047 73.6618 62.3574 73.788 62.3843 73.9208C62.4111 74.0536 62.4115 74.1904 62.3854 74.3233C62.3593 74.4563 62.3073 74.5828 62.2323 74.6956ZM70.7917 73.3877C70.8884 73.4825 70.9655 73.5954 71.0186 73.72C71.0717 73.8446 71.0997 73.9784 71.1011 74.1138C71.1024 74.2492 71.0771 74.3836 71.0265 74.5092C70.9759 74.6349 70.9011 74.7493 70.8063 74.846C70.7115 74.9427 70.5986 75.0198 70.474 75.0729C70.3494 75.126 70.2156 75.154 70.0802 75.1554C69.9448 75.1567 69.8104 75.1314 69.6848 75.0808C69.5591 75.0302 69.4447 74.9554 69.348 74.8606C62.3567 67.98 52.9342 64.1337 43.125 64.1562C42.8515 64.1562 42.5892 64.0476 42.3958 63.8542C42.2024 63.6608 42.0938 63.3985 42.0938 63.125C42.0938 62.8515 42.2024 62.5892 42.3958 62.3958C42.5892 62.2024 42.8515 62.0937 43.125 62.0937C53.4761 62.0688 63.4194 66.127 70.7969 73.3877H70.7917Z" fill="#FF3E41"/>
<path opacity="0.3" d="M117.381 63.8306L56.246 118.814L2.36174 56.4308L63.4963 1.44778L117.381 63.8306Z" stroke="#FF3E41" stroke-width="0.3"/>
<ellipse opacity="0.3" cx="63.334" cy="2.04081" rx="2" ry="2.04081" fill="#FF3E41"/>
<ellipse opacity="0.3" cx="56.3997" cy="118.64" rx="1.33333" ry="1.36054" fill="#FF3E41"/>
<ellipse opacity="0.3" cx="2" cy="56.4627" rx="2" ry="2.04081" fill="#FF3E41"/>
<ellipse opacity="0.3" cx="118" cy="63.2635" rx="2" ry="2.04081" fill="#FF3E41"/>
</svg>
