<svg width="40" height="40" viewBox="0 0 40 40" fill="none" xmlns="http://www.w3.org/2000/svg">
<path d="M21.3797 34.4422C21.1961 34.7181 20.9104 34.9099 20.5854 34.9752C20.2605 35.0406 19.9229 34.9742 19.6469 34.7906C14.9378 31.6579 9.40594 29.9908 3.75 30C3.41848 30 3.10054 29.8683 2.86612 29.6339C2.6317 29.3995 2.5 29.0815 2.5 28.75C2.5 28.4185 2.6317 28.1005 2.86612 27.8661C3.10054 27.6317 3.41848 27.5 3.75 27.5C9.89865 27.4905 15.9122 29.3033 21.0312 32.7094C21.3072 32.893 21.4989 33.1787 21.5643 33.5036C21.6296 33.8286 21.5632 34.1662 21.3797 34.4422ZM3.75 22.5C3.41848 22.5 3.10054 22.6317 2.86612 22.8661C2.6317 23.1005 2.5 23.4185 2.5 23.75C2.5 24.0815 2.6317 24.3995 2.86612 24.6339C3.10054 24.8683 3.41848 25 3.75 25C12.5857 24.9796 21.073 28.4443 27.3703 34.6422C27.4865 34.7617 27.6254 34.8567 27.7788 34.9217C27.9323 34.9867 28.0972 35.0204 28.2638 35.0207C28.4304 35.0211 28.5955 34.9881 28.7492 34.9238C28.9029 34.8594 29.0422 34.765 29.1589 34.646C29.2756 34.527 29.3673 34.3859 29.4286 34.231C29.49 34.076 29.5198 33.9104 29.5162 33.7438C29.5126 33.5772 29.4757 33.413 29.4077 33.2608C29.3397 33.1087 29.242 32.9716 29.1203 32.8578C22.3568 26.2 13.2406 22.4782 3.75 22.5ZM36.25 25C33.695 24.9983 31.148 25.2861 28.6578 25.8578C29.5161 26.5089 30.3495 27.1943 31.1578 27.9141C32.8412 27.6383 34.5442 27.4998 36.25 27.5C36.5815 27.5 36.8995 27.6317 37.1339 27.8661C37.3683 28.1005 37.5 28.4185 37.5 28.75C37.5 29.0815 37.3683 29.3995 37.1339 29.6339C36.8995 29.8683 36.5815 30 36.25 30C35.3125 30 34.3859 30.0453 33.4609 30.1344C34.3276 31.0375 35.1578 31.9823 35.9516 32.9688C36.0603 33.0961 36.1423 33.244 36.1928 33.4036C36.2433 33.5633 36.2612 33.7314 36.2454 33.8981C36.2297 34.0648 36.1806 34.2266 36.1011 34.374C36.0216 34.5214 35.9133 34.6512 35.7826 34.7559C35.6519 34.8606 35.5016 34.938 35.3404 34.9835C35.1793 35.029 35.0106 35.0416 34.8445 35.0206C34.6784 34.9997 34.5182 34.9456 34.3734 34.8615C34.2286 34.7774 34.1021 34.6651 34.0016 34.5313C30.3784 29.9879 25.7761 26.3214 20.538 23.8052C15.2998 21.2891 9.56111 19.9883 3.75 20C3.41848 20 3.10054 19.8683 2.86612 19.6339C2.6317 19.3995 2.5 19.0815 2.5 18.75C2.5 18.4185 2.6317 18.1005 2.86612 17.8661C3.10054 17.6317 3.41848 17.5 3.75 17.5C6.26558 17.5002 8.77593 17.7292 11.25 18.1844V12.5C11.25 12.3059 11.2952 12.1146 11.382 11.941C11.4688 11.7674 11.5948 11.6164 11.75 11.5L21.75 4C21.9664 3.83772 22.2295 3.75 22.5 3.75C22.7705 3.75 23.0336 3.83772 23.25 4L33.25 11.5C33.4052 11.6164 33.5312 11.7674 33.618 11.941C33.7048 12.1146 33.75 12.3059 33.75 12.5V17.5781C34.5797 17.5281 35.4125 17.5 36.25 17.5C36.5815 17.5 36.8995 17.6317 37.1339 17.8661C37.3683 18.1005 37.5 18.4185 37.5 18.75C37.5 19.0815 37.3683 19.3995 37.1339 19.6339C36.8995 19.8683 36.5815 20 36.25 20C31.7612 19.9914 27.3055 20.7682 23.0844 22.2953C24.0677 22.8161 25.0292 23.3776 25.9688 23.9797C29.3071 22.9959 32.7697 22.4976 36.25 22.5C36.5815 22.5 36.8995 22.6317 37.1339 22.8661C37.3683 23.1005 37.5 23.4185 37.5 23.75C37.5 24.0815 37.3683 24.3995 37.1339 24.6339C36.8995 24.8683 36.5815 25 36.25 25ZM20.0109 20.8234C22.0307 19.9557 24.1171 19.2524 26.25 18.7203V15H18.75V20.3125C19.1734 20.4688 19.5938 20.6453 20.0109 20.8234Z" fill="#FF3E41"/>
</svg>
