<svg width="26" height="26" viewBox="0 0 26 26" fill="none" xmlns="http://www.w3.org/2000/svg">
<rect x="5.52499" y="3.25" width="18.2" height="22.75" rx="3" fill="#FF3E41" fill-opacity="0.1"/>
<rect x="2.27499" width="18.2" height="22.75" rx="3" fill="#FF3E41"/>
<path fill-rule="evenodd" clip-rule="evenodd" d="M14.1096 3.44038C14.3635 3.69422 14.3635 4.10578 14.1096 4.35962L11.5096 6.95962C11.2558 7.21346 10.8442 7.21346 10.5904 6.95962L9.29039 5.65962C9.03655 5.40578 9.03655 4.99422 9.29039 4.74038C9.54423 4.48654 9.95578 4.48654 10.2096 4.74038L11.05 5.58076L13.1904 3.44038C13.4442 3.18654 13.8558 3.18654 14.1096 3.44038Z" fill="white"/>
<path d="M5.2 9.91251C5.2 9.46377 5.56377 9.10001 6.0125 9.10001H7.6375C8.08623 9.10001 8.45 9.46377 8.45 9.91251C8.45 10.3612 8.08623 10.725 7.6375 10.725H6.0125C5.56377 10.725 5.2 10.3612 5.2 9.91251Z" fill="white"/>
<path d="M5.2 12.8375C5.2 12.3888 5.56377 12.025 6.0125 12.025H16.7375C17.1862 12.025 17.55 12.3888 17.55 12.8375C17.55 13.2862 17.1862 13.65 16.7375 13.65H6.0125C5.56377 13.65 5.2 13.2862 5.2 12.8375Z" fill="white"/>
<path d="M5.2 15.7625C5.2 15.3138 5.56377 14.95 6.0125 14.95H16.7375C17.1862 14.95 17.55 15.3138 17.55 15.7625C17.55 16.2112 17.1862 16.575 16.7375 16.575H6.0125C5.56377 16.575 5.2 16.2112 5.2 15.7625Z" fill="white"/>
<path d="M5.2 18.6875C5.2 18.2388 5.56377 17.875 6.0125 17.875H16.7375C17.1862 17.875 17.55 18.2388 17.55 18.6875C17.55 19.1362 17.1862 19.5 16.7375 19.5H6.0125C5.56377 19.5 5.2 19.1362 5.2 18.6875Z" fill="white"/>
<path d="M9.75 9.91251C9.75 9.46377 10.1138 9.10001 10.5625 9.10001H12.1875C12.6362 9.10001 13 9.46377 13 9.91251C13 10.3612 12.6362 10.725 12.1875 10.725H10.5625C10.1138 10.725 9.75 10.3612 9.75 9.91251Z" fill="white"/>
<path d="M14.3 9.91251C14.3 9.46377 14.6638 9.10001 15.1125 9.10001H16.7375C17.1862 9.10001 17.55 9.46377 17.55 9.91251C17.55 10.3612 17.1862 10.725 16.7375 10.725H15.1125C14.6638 10.725 14.3 10.3612 14.3 9.91251Z" fill="white"/>
</svg>
