<svg width="18" height="18" viewBox="0 0 18 18" fill="none" xmlns="http://www.w3.org/2000/svg">
<path d="M10.804 6.30406L4.61655 12.4916C4.51106 12.597 4.36799 12.6563 4.21881 12.6563C4.06964 12.6563 3.92657 12.597 3.82107 12.4916L0.727253 9.39795C0.621757 9.29247 0.562482 9.1494 0.562469 9.00022C0.562457 8.85104 0.621706 8.70797 0.727184 8.60247C0.832662 8.49697 0.975728 8.4377 1.12491 8.43769C1.27409 8.43767 1.41717 8.49692 1.52266 8.6024L4.21878 11.2983L10.0084 5.50851C10.1139 5.40302 10.257 5.34375 10.4062 5.34375C10.5554 5.34375 10.6985 5.40302 10.804 5.50851C10.9095 5.61401 10.9687 5.75709 10.9687 5.90629C10.9687 6.05548 10.9095 6.19856 10.804 6.30406H10.804ZM17.2727 5.50851C17.1672 5.40306 17.0241 5.34382 16.875 5.34382C16.7258 5.34382 16.5827 5.40306 16.4772 5.50851L10.6875 11.2983L9.44174 10.0527C9.33625 9.94719 9.19317 9.88794 9.04399 9.88795C8.89481 9.88796 8.75174 9.94724 8.64627 10.0527C8.54079 10.1582 8.48154 10.3013 8.48155 10.4505C8.48156 10.5997 8.54084 10.7427 8.64633 10.8482L10.2898 12.4916C10.3953 12.597 10.5384 12.6563 10.6876 12.6563C10.8367 12.6563 10.9798 12.597 11.0853 12.4916L17.2727 6.30406C17.3782 6.19856 17.4375 6.05548 17.4375 5.90629C17.4375 5.7571 17.3782 5.61402 17.2727 5.50851Z" fill="#FF3E41"/>
</svg>
