<svg width="40" height="40" viewBox="0 0 40 40" fill="none" xmlns="http://www.w3.org/2000/svg">
<g clip-path="url(#clip0_3295_5593)">
<path d="M13.3329 17.933H12.3662C11.047 17.8854 9.73215 18.1093 8.50314 18.591C7.27413 19.0726 6.15723 19.8017 5.22174 20.733L4.95508 21.0442V30.2442H9.48841V25.0219L10.0995 24.333L10.3773 24.0108C11.8239 22.5247 13.6248 21.4311 15.6106 20.833C14.6168 20.0762 13.8327 19.0779 13.3329 17.933Z" fill="#FF3E41"/>
<path d="M34.8219 20.6998C33.8864 19.7685 32.7695 19.0394 31.5405 18.5578C30.3115 18.0761 28.9966 17.8522 27.6775 17.8998C27.2729 17.902 26.8687 17.9243 26.4664 17.9665C25.9572 19.0406 25.1946 19.9748 24.2441 20.6887C26.3643 21.2747 28.2849 22.4271 29.7997 24.0221L30.0775 24.3332L30.6775 25.0221V30.2554H35.0553V21.011L34.8219 20.6998Z" fill="#FF3E41"/>
<path d="M12.3338 15.7671H12.6783C12.5182 14.3929 12.7594 13.0018 13.3725 11.7616C13.9857 10.5215 14.9447 9.48532 16.1338 8.77821C15.7028 8.11971 15.1081 7.58444 14.4081 7.22482C13.708 6.8652 12.9265 6.69355 12.1402 6.72669C11.3539 6.75982 10.5896 6.99661 9.92231 7.41385C9.25498 7.8311 8.70746 8.4145 8.33335 9.10693C7.95924 9.79936 7.77137 10.5771 7.78814 11.3639C7.80491 12.1508 8.02575 12.9198 8.42902 13.5957C8.83229 14.2715 9.40417 14.8311 10.0887 15.2195C10.7732 15.6079 11.5468 15.8119 12.3338 15.8115V15.7671Z" fill="#FF3E41"/>
<path d="M27.1444 14.9331C27.157 15.1885 27.157 15.4443 27.1444 15.6997C27.3575 15.7339 27.5729 15.7525 27.7888 15.7553H27.9999C28.7835 15.7135 29.5429 15.4696 30.2042 15.0472C30.8655 14.6248 31.4061 14.0383 31.7735 13.345C32.1409 12.6516 32.3225 11.8749 32.3006 11.0906C32.2787 10.3062 32.0541 9.54083 31.6486 8.86902C31.2432 8.19722 30.6707 7.64185 29.9868 7.25699C29.303 6.87213 28.5312 6.67089 27.7465 6.67287C26.9618 6.67484 26.191 6.87996 25.5092 7.26826C24.8273 7.65655 24.2576 8.21479 23.8555 8.88863C24.8611 9.54522 25.688 10.4412 26.2621 11.4961C26.8361 12.5511 27.1393 13.7321 27.1444 14.9331Z" fill="#FF3E41"/>
<path d="M19.8553 19.9109C22.5984 19.9109 24.822 17.6872 24.822 14.9442C24.822 12.2012 22.5984 9.97754 19.8553 9.97754C17.1123 9.97754 14.8887 12.2012 14.8887 14.9442C14.8887 17.6872 17.1123 19.9109 19.8553 19.9109Z" fill="#FF3E41"/>
<path d="M20.1231 22.5559C18.6721 22.4979 17.2244 22.7338 15.8668 23.2493C14.5093 23.7648 13.2699 24.5494 12.2231 25.5559L11.9453 25.867V32.9003C11.9496 33.1294 11.9991 33.3554 12.0908 33.5654C12.1825 33.7754 12.3146 33.9652 12.4797 34.1241C12.6448 34.283 12.8396 34.4079 13.0529 34.4915C13.2663 34.5751 13.494 34.6158 13.7231 34.6114H26.4898C26.7189 34.6158 26.9466 34.5751 27.1599 34.4915C27.3733 34.4079 27.568 34.283 27.7331 34.1241C27.8982 33.9652 28.0304 33.7754 28.1221 33.5654C28.2138 33.3554 28.2632 33.1294 28.2675 32.9003V25.8892L28.0009 25.5559C26.9612 24.5458 25.7262 23.7587 24.3716 23.2428C23.017 22.7269 21.5713 22.4932 20.1231 22.5559Z" fill="#FF3E41"/>
</g>
<defs>
<clipPath id="clip0_3295_5593">
<rect width="40" height="40" fill="white"/>
</clipPath>
</defs>
</svg>
