<svg width="60" height="60" viewBox="0 0 60 60" fill="none" xmlns="http://www.w3.org/2000/svg">
<path d="M2.83086 5.42343C4.3943 5.42343 5.66172 4.20936 5.66172 2.71172C5.66172 1.21408 4.3943 0 2.83086 0C1.26742 0 0 1.21408 0 2.71172C0 4.20936 1.26742 5.42343 2.83086 5.42343Z" fill="#FF3E41"/>
<path d="M15.0252 2.65915C15.0252 4.07586 13.826 5.22452 12.3471 5.22452C10.8681 5.22452 9.66898 4.07586 9.66898 2.65915C9.66898 1.24244 10.8681 0.09375 12.3471 0.09375C13.826 0.09375 15.0252 1.24244 15.0252 2.65915Z" fill="#FF3E41"/>
<path d="M23.6734 2.65744C23.6734 3.98527 22.5499 5.06147 21.1637 5.06147C19.7776 5.06147 18.6541 3.98527 18.6541 2.65744C18.6541 1.32962 19.7776 0.253418 21.1637 0.253418C22.5499 0.253418 23.6734 1.32962 23.6734 2.65744Z" fill="#FF3E41"/>
<path d="M31.9869 2.60935C31.9869 3.82914 30.9547 4.81786 29.6813 4.81786C28.408 4.81786 27.3758 3.82914 27.3758 2.60935C27.3758 1.38955 28.408 0.400879 29.6813 0.400879C30.9547 0.400879 31.9869 1.38955 31.9869 2.60935Z" fill="#FF3E41"/>
<path d="M39.8728 2.71227C39.8728 3.86505 38.8978 4.79904 37.6944 4.79904C36.4909 4.79904 35.5159 3.86505 35.5159 2.71227C35.5159 1.55948 36.4909 0.625488 37.6944 0.625488C38.8978 0.625488 39.8728 1.55948 39.8728 2.71227Z" fill="#FF3E41"/>
<path d="M47.1067 2.71272C47.1067 3.79303 46.1917 4.66959 45.0639 4.66959C43.9361 4.66959 43.0211 3.79303 43.0211 2.71272C43.0211 1.63241 43.9361 0.755859 45.0639 0.755859C46.1917 0.755859 47.1067 1.63105 47.1067 2.71272Z" fill="#FF3E41"/>
<path d="M53.8921 2.71261C53.8921 3.72181 53.0384 4.53956 51.9834 4.53956C50.9299 4.53956 50.0762 3.72181 50.0762 2.71261C50.0762 1.70341 50.9299 0.884277 51.9834 0.884277C53.0384 0.884277 53.8921 1.70204 53.8921 2.71261Z" fill="#FF3E41"/>
<path d="M60.0001 2.71237C60.0001 3.63679 59.2178 4.38616 58.2527 4.38616C57.2877 4.38616 56.5054 3.63679 56.5054 2.71237C56.5054 1.78795 57.2877 1.03857 58.2527 1.03857C59.2178 1.03857 60.0001 1.78795 60.0001 2.71237Z" fill="#FF3E41"/>
<path d="M2.83086 13.2198C4.3943 13.2198 5.66172 12.0057 5.66172 10.5081C5.66172 9.01047 4.3943 7.79639 2.83086 7.79639C1.26742 7.79639 0 9.01047 0 10.5081C0 12.0057 1.26742 13.2198 2.83086 13.2198Z" fill="#FF3E41"/>
<path d="M15.0252 10.4555C15.0252 11.8723 13.826 13.0209 12.3471 13.0209C10.8681 13.0209 9.66898 11.8723 9.66898 10.4555C9.66898 9.03883 10.8681 7.89014 12.3471 7.89014C13.826 7.88877 15.0252 9.03883 15.0252 10.4555Z" fill="#FF3E41"/>
<path d="M23.6734 10.4563C23.6734 11.7841 22.5499 12.8603 21.1637 12.8603C19.7776 12.8603 18.6541 11.7841 18.6541 10.4563C18.6541 9.12845 19.7776 8.05225 21.1637 8.05225C22.5499 8.05225 23.6734 9.12845 23.6734 10.4563Z" fill="#FF3E41"/>
<path d="M31.9869 10.4033C31.9869 11.6231 30.9547 12.6118 29.6813 12.6118C28.408 12.6118 27.3758 11.6231 27.3758 10.4033C27.3758 9.18354 28.408 8.19482 29.6813 8.19482C30.9547 8.19619 31.9869 9.18354 31.9869 10.4033Z" fill="#FF3E41"/>
<path d="M39.8728 10.5072C39.8728 11.66 38.8978 12.594 37.6944 12.594C36.4909 12.594 35.5159 11.66 35.5159 10.5072C35.5159 9.3544 36.4909 8.42041 37.6944 8.42041C38.8978 8.42041 39.8728 9.35577 39.8728 10.5072Z" fill="#FF3E41"/>
<path d="M47.1067 10.5091C47.1067 11.5894 46.1917 12.466 45.0639 12.466C43.9361 12.466 43.0211 11.5894 43.0211 10.5091C43.0211 9.4288 43.9361 8.55225 45.0639 8.55225C46.1917 8.55225 47.1067 9.4288 47.1067 10.5091Z" fill="#FF3E41"/>
<path d="M53.8921 10.508C53.8921 11.5172 53.0384 12.335 51.9834 12.335C50.9299 12.335 50.0762 11.5172 50.0762 10.508C50.0762 9.49882 50.9299 8.67969 51.9834 8.67969C53.0384 8.68105 53.8921 9.49882 53.8921 10.508Z" fill="#FF3E41"/>
<path d="M60.0001 10.5083C60.0001 11.4327 59.2178 12.1821 58.2527 12.1821C57.2877 12.1821 56.5054 11.4327 56.5054 10.5083C56.5054 9.58385 57.2877 8.83447 58.2527 8.83447C59.2178 8.83447 60.0001 9.58385 60.0001 10.5083Z" fill="#FF3E41"/>
<path d="M2.83086 21.0167C4.3943 21.0167 5.66172 19.8026 5.66172 18.305C5.66172 16.8073 4.3943 15.5933 2.83086 15.5933C1.26742 15.5933 0 16.8073 0 18.305C0 19.8026 1.26742 21.0167 2.83086 21.0167Z" fill="#FF3E41"/>
<path d="M15.0252 18.2514C15.0252 19.6682 13.826 20.8168 12.3471 20.8168C10.8681 20.8168 9.66898 19.6682 9.66898 18.2514C9.66898 16.8347 10.8681 15.686 12.3471 15.686C13.826 15.686 15.0252 16.8347 15.0252 18.2514Z" fill="#FF3E41"/>
<path d="M23.6734 18.2522C23.6734 19.58 22.5499 20.6562 21.1637 20.6562C19.7776 20.6562 18.6541 19.58 18.6541 18.2522C18.6541 16.9243 19.7776 15.8481 21.1637 15.8481C22.5499 15.8481 23.6734 16.9243 23.6734 18.2522Z" fill="#FF3E41"/>
<path d="M31.9869 18.2022C31.9869 19.422 30.9547 20.4106 29.6813 20.4106C28.408 20.4106 27.3758 19.422 27.3758 18.2022C27.3758 16.9824 28.408 15.9937 29.6813 15.9937C30.9547 15.9937 31.9869 16.9824 31.9869 18.2022Z" fill="#FF3E41"/>
<path d="M39.8728 18.3041C39.8728 19.4568 38.8978 20.3908 37.6944 20.3908C36.4909 20.3908 35.5159 19.4568 35.5159 18.3041C35.5159 17.1513 36.4909 16.2173 37.6944 16.2173C38.8978 16.2173 39.8728 17.1513 39.8728 18.3041Z" fill="#FF3E41"/>
<path d="M47.1067 18.305C47.1067 19.3853 46.1917 20.2619 45.0639 20.2619C43.9361 20.2619 43.0211 19.3853 43.0211 18.305C43.0211 17.2247 43.9361 16.3481 45.0639 16.3481C46.1917 16.3481 47.1067 17.2247 47.1067 18.305Z" fill="#FF3E41"/>
<path d="M53.8921 18.3049C53.8921 19.3141 53.0384 20.1318 51.9834 20.1318C50.9299 20.1318 50.0762 19.3141 50.0762 18.3049C50.0762 17.2957 50.9299 16.4766 51.9834 16.4766C53.0384 16.4766 53.8921 17.2957 53.8921 18.3049Z" fill="#FF3E41"/>
<path d="M60.0001 18.3042C60.0001 19.2286 59.2178 19.978 58.2527 19.978C57.2877 19.978 56.5054 19.2286 56.5054 18.3042C56.5054 17.3797 57.2877 16.6304 58.2527 16.6304C59.2178 16.6304 60.0001 17.3797 60.0001 18.3042Z" fill="#FF3E41"/>
<path d="M2.83086 28.815C4.3943 28.815 5.66172 27.601 5.66172 26.1033C5.66172 24.6057 4.3943 23.3916 2.83086 23.3916C1.26742 23.3916 0 24.6057 0 26.1033C0 27.601 1.26742 28.815 2.83086 28.815Z" fill="#FF3E41"/>
<path d="M15.0252 26.0512C15.0252 27.4679 13.826 28.6166 12.3471 28.6166C10.8681 28.6166 9.66898 27.4679 9.66898 26.0512C9.66898 24.6345 10.8681 23.4858 12.3471 23.4858C13.826 23.4858 15.0252 24.6345 15.0252 26.0512Z" fill="#FF3E41"/>
<path d="M23.6734 26.0481C23.6734 27.3759 22.5499 28.4521 21.1637 28.4521C19.7776 28.4521 18.6541 27.3759 18.6541 26.0481C18.6541 24.7202 19.7776 23.644 21.1637 23.644C22.5499 23.644 23.6734 24.7202 23.6734 26.0481Z" fill="#FF3E41"/>
<path d="M31.9869 25.999C31.9869 27.2188 30.9547 28.2075 29.6813 28.2075C28.408 28.2075 27.3758 27.2188 27.3758 25.999C27.3758 24.7792 28.408 23.7905 29.6813 23.7905C30.9547 23.7919 31.9869 24.7806 31.9869 25.999Z" fill="#FF3E41"/>
<path d="M39.8728 26.1024C39.8728 27.2552 38.8978 28.1892 37.6944 28.1892C36.4909 28.1892 35.5159 27.2552 35.5159 26.1024C35.5159 24.9496 36.4909 24.0156 37.6944 24.0156C38.8978 24.0156 39.8728 24.9496 39.8728 26.1024Z" fill="#FF3E41"/>
<path d="M47.1067 26.1019C47.1067 27.1822 46.1917 28.0588 45.0639 28.0588C43.9361 28.0588 43.0211 27.1822 43.0211 26.1019C43.0211 25.0216 43.9361 24.145 45.0639 24.145C46.1917 24.145 47.1067 25.0202 47.1067 26.1019Z" fill="#FF3E41"/>
<path d="M53.8921 26.1013C53.8921 27.1105 53.0384 27.9282 51.9834 27.9282C50.9299 27.9282 50.0762 27.1105 50.0762 26.1013C50.0762 25.0921 50.9299 24.2729 51.9834 24.2729C53.0384 24.2729 53.8921 25.0907 53.8921 26.1013Z" fill="#FF3E41"/>
<path d="M60.0001 26.1015C60.0001 27.0259 59.2178 27.7753 58.2527 27.7753C57.2877 27.7753 56.5054 27.0259 56.5054 26.1015C56.5054 25.1771 57.2877 24.4277 58.2527 24.4277C59.2178 24.4277 60.0001 25.1771 60.0001 26.1015Z" fill="#FF3E41"/>
<path d="M2.83086 36.6114C4.3943 36.6114 5.66172 35.3973 5.66172 33.8997C5.66172 32.4021 4.3943 31.188 2.83086 31.188C1.26742 31.188 0 32.4021 0 33.8997C0 35.3973 1.26742 36.6114 2.83086 36.6114Z" fill="#FF3E41"/>
<path d="M15.0252 33.8442C15.0252 35.2609 13.826 36.4096 12.3471 36.4096C10.8681 36.4096 9.66898 35.2609 9.66898 33.8442C9.66898 32.4275 10.8681 31.2788 12.3471 31.2788C13.826 31.2788 15.0252 32.4275 15.0252 33.8442Z" fill="#FF3E41"/>
<path d="M23.6734 33.8454C23.6734 35.1733 22.5499 36.2495 21.1637 36.2495C19.7776 36.2495 18.6541 35.1733 18.6541 33.8454C18.6541 32.5176 19.7776 31.4414 21.1637 31.4414C22.5499 31.4428 23.6734 32.519 23.6734 33.8454Z" fill="#FF3E41"/>
<path d="M31.9869 33.7939C31.9869 35.0137 30.9547 36.0024 29.6813 36.0024C28.408 36.0024 27.3758 35.0137 27.3758 33.7939C27.3758 32.5741 28.408 31.5854 29.6813 31.5854C30.9547 31.5854 31.9869 32.5741 31.9869 33.7939Z" fill="#FF3E41"/>
<path d="M39.8728 33.8988C39.8728 35.0516 38.8978 35.9856 37.6944 35.9856C36.4909 35.9856 35.5159 35.0516 35.5159 33.8988C35.5159 32.746 36.4909 31.812 37.6944 31.812C38.8978 31.812 39.8728 32.746 39.8728 33.8988Z" fill="#FF3E41"/>
<path d="M47.1067 33.8978C47.1067 34.9781 46.1917 35.8546 45.0639 35.8546C43.9361 35.8546 43.0211 34.9781 43.0211 33.8978C43.0211 32.8175 43.9361 31.9409 45.0639 31.9409C46.1917 31.9409 47.1067 32.8175 47.1067 33.8978Z" fill="#FF3E41"/>
<path d="M53.8921 33.8982C53.8921 34.9074 53.0384 35.7252 51.9834 35.7252C50.9299 35.7252 50.0762 34.9074 50.0762 33.8982C50.0762 32.889 50.9299 32.0713 51.9834 32.0713C53.0384 32.0713 53.8921 32.889 53.8921 33.8982Z" fill="#FF3E41"/>
<path d="M60.0001 33.8979C60.0001 34.8223 59.2178 35.5717 58.2527 35.5717C57.2877 35.5717 56.5054 34.8223 56.5054 33.8979C56.5054 32.9735 57.2877 32.2241 58.2527 32.2241C59.2178 32.2241 60.0001 32.9735 60.0001 33.8979Z" fill="#FF3E41"/>
<path d="M5.66172 41.6956C5.66172 43.193 4.39404 44.4073 2.83086 44.4073C1.26767 44.4073 0 43.193 0 41.6956C0 40.1982 1.26767 38.9839 2.83086 38.9839C4.39404 38.9839 5.66172 40.1968 5.66172 41.6956Z" fill="#FF3E41"/>
<path d="M15.0252 41.643C15.0252 43.0598 13.826 44.2084 12.3471 44.2084C10.8681 44.2084 9.66898 43.0598 9.66898 41.643C9.66898 40.2263 10.8681 39.0776 12.3471 39.0776C13.826 39.0776 15.0252 40.2263 15.0252 41.643Z" fill="#FF3E41"/>
<path d="M23.6734 41.6418C23.6734 42.9696 22.5499 44.0458 21.1637 44.0458C19.7776 44.0458 18.6541 42.9696 18.6541 41.6418C18.6541 40.314 19.7776 39.2378 21.1637 39.2378C22.5499 39.2378 23.6734 40.314 23.6734 41.6418Z" fill="#FF3E41"/>
<path d="M31.9869 41.5937C31.9869 42.8135 30.9547 43.8022 29.6813 43.8022C28.408 43.8022 27.3758 42.8135 27.3758 41.5937C27.3758 40.3739 28.408 39.3853 29.6813 39.3853C30.9547 39.3853 31.9869 40.3739 31.9869 41.5937Z" fill="#FF3E41"/>
<path d="M39.8728 41.6957C39.8728 42.8485 38.8978 43.7824 37.6944 43.7824C36.4909 43.7824 35.5159 42.8485 35.5159 41.6957C35.5159 40.5429 36.4909 39.6089 37.6944 39.6089C38.8978 39.6089 39.8728 40.5429 39.8728 41.6957Z" fill="#FF3E41"/>
<path d="M47.1067 41.6966C47.1067 42.7769 46.1917 43.6535 45.0639 43.6535C43.9361 43.6535 43.0211 42.7769 43.0211 41.6966C43.0211 40.6163 43.9361 39.7397 45.0639 39.7397C46.1917 39.7397 47.1067 40.6163 47.1067 41.6966Z" fill="#FF3E41"/>
<path d="M53.8921 41.6956C53.8921 42.7048 53.0384 43.5226 51.9834 43.5226C50.9299 43.5226 50.0762 42.7048 50.0762 41.6956C50.0762 40.6864 50.9299 39.8687 51.9834 39.8687C53.0384 39.8673 53.8921 40.6864 53.8921 41.6956Z" fill="#FF3E41"/>
<path d="M60.0001 41.6967C60.0001 42.6212 59.2178 43.3705 58.2527 43.3705C57.2877 43.3705 56.5054 42.6212 56.5054 41.6967C56.5054 40.7723 57.2877 40.0229 58.2527 40.0229C59.2178 40.0229 60.0001 40.7723 60.0001 41.6967Z" fill="#FF3E41"/>
<path d="M5.66172 49.4925C5.66172 50.9899 4.39404 52.2042 2.83086 52.2042C1.26767 52.2042 0 50.9899 0 49.4925C0 47.9951 1.26767 46.7808 2.83086 46.7808C4.39404 46.7808 5.66172 47.9951 5.66172 49.4925Z" fill="#FF3E41"/>
<path d="M15.0252 49.4389C15.0252 50.8557 13.826 52.0043 12.3471 52.0043C10.8681 52.0043 9.66898 50.8557 9.66898 49.4389C9.66898 48.0222 10.8681 46.8735 12.3471 46.8735C13.826 46.8735 15.0252 48.0222 15.0252 49.4389Z" fill="#FF3E41"/>
<path d="M23.6734 49.4402C23.6734 50.768 22.5499 51.8442 21.1637 51.8442C19.7776 51.8442 18.6541 50.768 18.6541 49.4402C18.6541 48.1123 19.7776 47.0361 21.1637 47.0361C22.5499 47.0361 23.6734 48.1123 23.6734 49.4402Z" fill="#FF3E41"/>
<path d="M31.9869 49.3867C31.9869 50.6065 30.9547 51.5952 29.6813 51.5952C28.408 51.5952 27.3758 50.6065 27.3758 49.3867C27.3758 48.1669 28.408 47.1782 29.6813 47.1782C30.9547 47.1796 31.9869 48.1669 31.9869 49.3867Z" fill="#FF3E41"/>
<path d="M39.8728 49.4921C39.8728 50.6448 38.8978 51.5788 37.6944 51.5788C36.4909 51.5788 35.5159 50.6448 35.5159 49.4921C35.5159 48.3393 36.4909 47.4053 37.6944 47.4053C38.8978 47.4053 39.8728 48.3393 39.8728 49.4921Z" fill="#FF3E41"/>
<path d="M47.1067 49.4925C47.1067 50.5728 46.1917 51.4494 45.0639 51.4494C43.9361 51.4494 43.0211 50.5728 43.0211 49.4925C43.0211 48.4122 43.9361 47.5356 45.0639 47.5356C46.1917 47.5356 47.1067 48.4122 47.1067 49.4925Z" fill="#FF3E41"/>
<path d="M53.8921 49.4915C53.8921 50.5007 53.0384 51.3198 51.9834 51.3198C50.9299 51.3198 50.0762 50.5021 50.0762 49.4915C50.0762 48.4823 50.9299 47.6646 51.9834 47.6646C53.0384 47.6646 53.8921 48.4823 53.8921 49.4915Z" fill="#FF3E41"/>
<path d="M60.0001 49.4922C60.0001 50.4166 59.2178 51.166 58.2527 51.166C57.2877 51.166 56.5054 50.4166 56.5054 49.4922C56.5054 48.5677 57.2877 47.8184 58.2527 47.8184C59.2178 47.8197 60.0001 48.5677 60.0001 49.4922Z" fill="#FF3E41"/>
<path d="M5.66172 57.2884C5.66172 58.7858 4.39404 60.0001 2.83086 60.0001C1.26767 60.0001 0 58.7858 0 57.2884C0 55.791 1.26767 54.5767 2.83086 54.5767C4.39404 54.5767 5.66172 55.791 5.66172 57.2884Z" fill="#FF3E41"/>
<path d="M15.0252 57.2358C15.0252 58.6525 13.826 59.8012 12.3471 59.8012C10.8681 59.8012 9.66898 58.6525 9.66898 57.2358C9.66898 55.8191 10.8681 54.6704 12.3471 54.6704C13.826 54.6704 15.0252 55.8191 15.0252 57.2358Z" fill="#FF3E41"/>
<path d="M23.6734 57.2361C23.6734 58.5639 22.5499 59.6401 21.1637 59.6401C19.7776 59.6401 18.6541 58.5639 18.6541 57.2361C18.6541 55.9082 19.7776 54.832 21.1637 54.832C22.5499 54.8334 23.6734 55.9096 23.6734 57.2361Z" fill="#FF3E41"/>
<path d="M31.9869 57.1865C31.9869 58.4063 30.9547 59.395 29.6813 59.395C28.408 59.395 27.3758 58.4063 27.3758 57.1865C27.3758 55.9667 28.408 54.978 29.6813 54.978C30.9547 54.978 31.9869 55.9667 31.9869 57.1865Z" fill="#FF3E41"/>
<path d="M39.8728 57.2879C39.8728 58.4407 38.8978 59.3747 37.6944 59.3747C36.4909 59.3747 35.5159 58.4407 35.5159 57.2879C35.5159 56.1352 36.4909 55.2012 37.6944 55.2012C38.8978 55.2012 39.8728 56.1352 39.8728 57.2879Z" fill="#FF3E41"/>
<path d="M47.1067 57.2889C47.1067 58.3692 46.1917 59.2458 45.0639 59.2458C43.9361 59.2458 43.0211 58.3692 43.0211 57.2889C43.0211 56.2086 43.9361 55.332 45.0639 55.332C46.1917 55.332 47.1067 56.2086 47.1067 57.2889Z" fill="#FF3E41"/>
<path d="M53.8921 57.2903C53.8921 58.2995 53.0384 59.1187 51.9834 59.1187C50.9299 59.1187 50.0762 58.3009 50.0762 57.2903C50.0762 56.2811 50.9299 55.4634 51.9834 55.4634C53.0384 55.4634 53.8921 56.2811 53.8921 57.2903Z" fill="#FF3E41"/>
<path d="M60.0001 57.2895C60.0001 58.2139 59.2178 58.9633 58.2527 58.9633C57.2877 58.9633 56.5054 58.2139 56.5054 57.2895C56.5054 56.3651 57.2877 55.6157 58.2527 55.6157C59.2178 55.6157 60.0001 56.3651 60.0001 57.2895Z" fill="#FF3E41"/>
</svg>
