<svg width="40" height="40" viewBox="0 0 40 40" fill="none" xmlns="http://www.w3.org/2000/svg">
<rect width="40" height="40" rx="12" fill="white" fill-opacity="0.2"/>
<path d="M26.7145 16.1184C26.6954 15.6975 26.6954 15.2957 26.6954 14.8939C26.6954 14.5686 26.4467 14.3199 26.1214 14.3199C23.7298 14.3199 21.9121 13.6311 20.4006 12.1578C20.171 11.9474 19.8266 11.9474 19.597 12.1578C18.0855 13.6311 16.2679 14.3199 13.8763 14.3199C13.551 14.3199 13.3023 14.5686 13.3023 14.8939C13.3023 15.2957 13.3023 15.6975 13.2831 16.1184C13.2066 20.1363 13.0918 25.6466 19.8075 27.9617L19.9988 28L20.1902 27.9617C26.8867 25.6466 26.7911 20.1555 26.7145 16.1184ZM19.5396 21.6861C19.4248 21.7818 19.2909 21.8392 19.1378 21.8392H19.1187C18.9656 21.8392 18.8126 21.7626 18.7169 21.6478L16.9375 19.6771L17.7985 18.9118L19.1952 20.4616L22.2948 17.5151L23.0792 18.357L19.5396 21.6861Z" fill="white"/>
</svg>
