<svg width="40" height="24" viewBox="0 0 40 24" fill="none" xmlns="http://www.w3.org/2000/svg">
<path d="M20.2125 1.325L14.1625 6.225C13.1563 7.0375 12.9625 8.5 13.725 9.54375C14.5313 10.6562 16.1 10.875 17.1812 10.0312L23.3875 5.20625C23.825 4.86875 24.45 4.94375 24.7938 5.38125C25.1375 5.81875 25.0562 6.44375 24.6187 6.7875L23.3125 7.8L32 15.8V4H31.9562L31.7125 3.84375L27.175 0.9375C26.2187 0.325 25.1 0 23.9625 0C22.6 0 21.275 0.46875 20.2125 1.325ZM21.6375 9.1L18.4062 11.6125C16.4375 13.15 13.5812 12.75 12.1062 10.725C10.7187 8.81875 11.0687 6.15625 12.9 4.675L18.1 0.46875C17.375 0.1625 16.5938 0.0062499 15.8 0.0062499C14.625 -9.54606e-08 13.4812 0.35 12.5 1L8 4V18H9.7625L15.475 23.2125C16.7 24.3312 18.5937 24.2437 19.7125 23.0187C20.0562 22.6375 20.2875 22.1938 20.4062 21.7313L21.4688 22.7062C22.6875 23.825 24.5875 23.7437 25.7062 22.525C25.9875 22.2187 26.1938 21.8625 26.325 21.4937C27.5375 22.3062 29.1875 22.1375 30.2062 21.025C31.325 19.8062 31.2437 17.9063 30.025 16.7875L21.6375 9.1ZM1 4C0.45 4 0 4.45 0 5V18C0 19.1063 0.89375 20 2 20H4C5.10625 20 6 19.1063 6 18V4H1ZM3 16C3.26522 16 3.51957 16.1054 3.70711 16.2929C3.89464 16.4804 4 16.7348 4 17C4 17.2652 3.89464 17.5196 3.70711 17.7071C3.51957 17.8946 3.26522 18 3 18C2.73478 18 2.48043 17.8946 2.29289 17.7071C2.10536 17.5196 2 17.2652 2 17C2 16.7348 2.10536 16.4804 2.29289 16.2929C2.48043 16.1054 2.73478 16 3 16ZM34 4V18C34 19.1063 34.8937 20 36 20H38C39.1063 20 40 19.1063 40 18V5C40 4.45 39.55 4 39 4H34ZM36 17C36 16.7348 36.1054 16.4804 36.2929 16.2929C36.4804 16.1054 36.7348 16 37 16C37.2652 16 37.5196 16.1054 37.7071 16.2929C37.8946 16.4804 38 16.7348 38 17C38 17.2652 37.8946 17.5196 37.7071 17.7071C37.5196 17.8946 37.2652 18 37 18C36.7348 18 36.4804 17.8946 36.2929 17.7071C36.1054 17.5196 36 17.2652 36 17Z" fill="#FF3E41"/>
</svg>
